<svg xmlns="http://www.w3.org/2000/svg" width="119.664" height="40" viewBox="0 0 119.66407 40">
  <path d="M110.135 0H9.535c-.367 0-.73 0-1.095.002-.306.002-.61.008-.92.013A13.215 13.215 0 0 0 5.518.19a6.665 6.665 0 0 0-1.9.628 6.438 6.438 0 0 0-1.62 1.18A6.258 6.258 0 0 0 .82 3.618 6.6 6.6 0 0 0 .193 5.52a12.993 12.993 0 0 0-.18 2.003c-.008.307-.01.615-.014.92V31.56c0 .31 0 .61.01.92a12.992 12.992 0 0 0 .18 2.002 6.588 6.588 0 0 0 .62 1.905A6.208 6.208 0 0 0 1.99 38a6.274 6.274 0 0 0 1.62 1.18 6.7 6.7 0 0 0 1.9.63 13.455 13.455 0 0 0 2.008.177c.31.007.615.01.92.01.367.003.73.003 1.096.003h100.6c.36 0 .724 0 1.084-.002.3 0 .61-.004.92-.01a13.28 13.28 0 0 0 2-.178 6.804 6.804 0 0 0 1.91-.63 6.277 6.277 0 0 0 1.61-1.18 6.395 6.395 0 0 0 1.18-1.613 6.604 6.604 0 0 0 .62-1.905 13.506 13.506 0 0 0 .183-2.002c.01-.31.01-.61.01-.92.01-.365.01-.726.01-1.095V9.535c0-.365 0-.728-.01-1.09v-.922a13.507 13.507 0 0 0-.18-2.002 6.618 6.618 0 0 0-.62-1.9 6.466 6.466 0 0 0-2.8-2.8 6.768 6.768 0 0 0-1.91-.62 13.044 13.044 0 0 0-2-.17c-.3 0-.62-.01-.92-.01-.35-.01-.72-.01-1.08-.01z" fill="#a6a6a6"/>
  <path d="M8.445 39.125c-.305 0-.602-.004-.904-.01a12.687 12.687 0 0 1-1.87-.164 5.884 5.884 0 0 1-1.65-.54 5.406 5.406 0 0 1-1.4-1.01A5.32 5.32 0 0 1 1.6 36a5.722 5.722 0 0 1-.54-1.656 12.414 12.414 0 0 1-.17-1.88l-.01-.913V8.45l.014-.896a12.37 12.37 0 0 1 .16-1.87 5.755 5.755 0 0 1 .54-1.66 5.373 5.373 0 0 1 1.02-1.4 5.565 5.565 0 0 1 1.4-1.024 5.823 5.823 0 0 1 1.653-.544A12.586 12.586 0 0 1 7.543.888l.902-.012h102.77l.912.013a12.385 12.385 0 0 1 1.858.16 5.938 5.938 0 0 1 1.67.55 5.594 5.594 0 0 1 2.416 2.42 5.763 5.763 0 0 1 .54 1.65 12.995 12.995 0 0 1 .18 1.88c.01.28.01.59.01.89.01.37.01.73.01 1.09v22.93a12.73 12.73 0 0 1-.17 1.85 5.74 5.74 0 0 1-.54 1.67 5.48 5.48 0 0 1-1.015 1.38 5.413 5.413 0 0 1-1.4 1.02 5.862 5.862 0 0 1-1.67.55 12.542 12.542 0 0 1-1.87.16c-.294 0-.6.01-.9.01h-1.084z"/>
  <g fill="#fff">
    <path d="M24.77 20.3a4.95 4.95 0 0 1 2.355-4.15 5.066 5.066 0 0 0-3.99-2.16c-1.68-.175-3.308 1.006-4.164 1.006-.87 0-2.18-.988-3.6-.958a5.315 5.315 0 0 0-4.47 2.728c-1.93 3.348-.49 8.27 1.36 10.976.93 1.325 2.01 2.805 3.43 2.753 1.39-.058 1.91-.885 3.58-.885 1.66 0 2.15.885 3.59.852 1.49-.025 2.43-1.332 3.32-2.67A10.962 10.962 0 0 0 27.7 24.7a4.782 4.782 0 0 1-2.92-4.4zm-2.733-8.09a4.872 4.872 0 0 0 1.115-3.49 4.957 4.957 0 0 0-3.208 1.66 4.636 4.636 0 0 0-1.144 3.36 4.1 4.1 0 0 0 3.237-1.53z"/>
    <path d="M42.302 27.14H37.57l-1.138 3.356h-2.005l4.484-12.418H41l4.483 12.418h-2.04zm-4.243-1.55h3.75l-1.85-5.446h-.05zm17.1.38c0 2.813-1.51 4.62-3.78 4.62a3.07 3.07 0 0 1-2.85-1.583h-.05v4.484h-1.86V21.45h1.8v1.506h.03a3.212 3.212 0 0 1 2.88-1.6c2.3 0 3.81 1.816 3.81 4.62zm-1.91 0c0-1.833-.95-3.038-2.4-3.038-1.42 0-2.38 1.23-2.38 3.038 0 1.824.95 3.046 2.37 3.046 1.44 0 2.39-1.197 2.39-3.046zm11.87 0c0 2.813-1.51 4.62-3.78 4.62a3.07 3.07 0 0 1-2.85-1.583h-.05v4.484h-1.86V21.45h1.8v1.506h.03a3.212 3.212 0 0 1 2.88-1.6c2.3 0 3.81 1.816 3.81 4.62zm-1.91 0c0-1.833-.95-3.038-2.4-3.038-1.42 0-2.38 1.23-2.38 3.038 0 1.824.95 3.046 2.37 3.046 1.44 0 2.39-1.197 2.39-3.046zm8.49 1.066c.13 1.232 1.33 2.04 2.97 2.04 1.56 0 2.69-.808 2.69-1.92 0-.963-.68-1.54-2.29-1.935l-1.61-.38c-2.28-.55-3.34-1.61-3.34-3.35 0-2.14 1.87-3.61 4.52-3.61 2.62 0 4.42 1.48 4.48 3.62h-1.87c-.11-1.24-1.14-1.98-2.64-1.98s-2.52.76-2.52 1.86c0 .88.65 1.4 2.25 1.79l1.37.34c2.55.607 3.61 1.63 3.61 3.447 0 2.324-1.85 3.78-4.79 3.78-2.76 0-4.62-1.42-4.74-3.67zM83.34 19.3v2.142h1.72v1.472h-1.72v4.99c0 .777.345 1.138 1.1 1.138a5.808 5.808 0 0 0 .61-.043v1.46a5.104 5.104 0 0 1-1.03.08c-1.832 0-2.55-.69-2.55-2.45V22.9h-1.31v-1.47h1.317V19.3zm2.72 6.67c0-2.85 1.677-4.64 4.293-4.64 2.622 0 4.292 1.79 4.292 4.64 0 2.856-1.66 4.638-4.296 4.638s-4.3-1.782-4.3-4.638zm6.694 0c0-1.954-.898-3.108-2.4-3.108s-2.4 1.162-2.4 3.108c0 1.962.89 3.106 2.4 3.106s2.4-1.144 2.4-3.106zm3.423-4.528h1.773v1.54H98a2.16 2.16 0 0 1 2.177-1.634 2.866 2.866 0 0 1 .636.07v1.737a2.598 2.598 0 0 0-.835-.112 1.873 1.873 0 0 0-1.936 2.083v5.37h-1.858zm13.2 6.395c-.25 1.643-1.85 2.77-3.9 2.77-2.633 0-4.27-1.763-4.27-4.594 0-2.84 1.646-4.682 4.193-4.682 2.506 0 4.08 1.73 4.08 4.47v.64h-6.394v.11a2.358 2.358 0 0 0 2.435 2.57 2.048 2.048 0 0 0 2.09-1.27zm-6.28-2.702h4.524a2.177 2.177 0 0 0-2.22-2.298 2.292 2.292 0 0 0-2.3 2.298z"/>
  </g>
  <path d="M37.826 8.73a2.64 2.64 0 0 1 2.808 2.966c0 1.906-1.03 3.002-2.808 3.002H35.67V8.73zm-1.228 5.124h1.125a1.876 1.876 0 0 0 1.967-2.146 1.88 1.88 0 0 0-1.967-2.134h-1.125zm5.082-1.41a2.133 2.133 0 1 1 4.248 0 2.134 2.134 0 1 1-4.247 0zm3.334 0c0-.976-.44-1.547-1.208-1.547-.773 0-1.207.57-1.207 1.547 0 .984.43 1.55 1.2 1.55s1.21-.57 1.21-1.55zm6.56 2.254h-.923l-.93-3.317h-.07l-.92 3.32h-.91l-1.24-4.5h.9l.81 3.44h.07l.93-3.43h.85l.93 3.44h.07l.81-3.43h.89zm2.28-4.503h.855v.715h.06a1.348 1.348 0 0 1 1.34-.802 1.465 1.465 0 0 1 1.56 1.675v2.915h-.89v-2.692c0-.724-.32-1.084-.97-1.084a1.033 1.033 0 0 0-1.08 1.14V14.7h-.89zm5.24-1.758h.888v6.26h-.888zm2.124 4.007a2.133 2.133 0 1 1 4.247 0 2.134 2.134 0 1 1-4.247 0zm3.333 0c0-.976-.43-1.547-1.2-1.547s-1.2.57-1.2 1.547c0 .984.44 1.55 1.21 1.55s1.21-.57 1.21-1.55zm1.85.98c0-.81.61-1.278 1.68-1.344l1.22-.07v-.39c0-.474-.31-.743-.92-.743-.49 0-.84.182-.94.5h-.86c.09-.773.82-1.27 1.84-1.27 1.13 0 1.77.563 1.77 1.514v3.08h-.85v-.63h-.07a1.515 1.515 0 0 1-1.35.71 1.36 1.36 0 0 1-1.5-1.35zm2.9-.384v-.377l-1.1.07c-.62.042-.9.253-.9.65 0 .405.35.64.84.64a1.062 1.062 0 0 0 1.17-.983zm2.06-.596c0-1.423.73-2.324 1.87-2.324a1.484 1.484 0 0 1 1.38.79h.07V8.437h.89v6.26h-.85v-.71h-.07a1.563 1.563 0 0 1-1.41.785c-1.14 0-1.87-.9-1.87-2.328zm.92 0c0 .955.45 1.53 1.21 1.53.75 0 1.21-.583 1.21-1.526 0-.938-.46-1.53-1.21-1.53s-1.2.58-1.2 1.526zm6.97 0a2.133 2.133 0 1 1 4.25 0 2.134 2.134 0 1 1-4.25 0zm3.34 0c0-.976-.44-1.547-1.21-1.547s-1.202.57-1.202 1.547c0 .984.435 1.55 1.207 1.55.77 0 1.205-.57 1.205-1.55zm2.11-2.25h.857v.716h.067a1.348 1.348 0 0 1 1.35-.802 1.465 1.465 0 0 1 1.56 1.675v2.915h-.89v-2.692c0-.724-.315-1.084-.973-1.084a1.033 1.033 0 0 0-1.08 1.14V14.7h-.89zm8.847-1.12v1.14h.977v.75h-.97v2.315c0 .47.193.67.636.67a2.967 2.967 0 0 0 .34-.02v.74a2.916 2.916 0 0 1-.483.04c-.99 0-1.38-.35-1.38-1.22v-2.54h-.714v-.75h.715V9.07zm2.19-.637h.88v2.48h.07a1.386 1.386 0 0 1 1.375-.805 1.483 1.483 0 0 1 1.55 1.68v2.906h-.89V12.01c0-.72-.34-1.084-.967-1.084a1.052 1.052 0 0 0-1.133 1.142v2.63h-.89zm9.056 5.045a1.828 1.828 0 0 1-1.95 1.303 2.045 2.045 0 0 1-2.08-2.325 2.077 2.077 0 0 1 2.08-2.352c1.254 0 2.01.856 2.01 2.27v.31h-3.18v.05a1.19 1.19 0 0 0 1.2 1.29 1.08 1.08 0 0 0 1.07-.546zm-3.122-1.45h2.277a1.086 1.086 0 0 0-1.11-1.168 1.152 1.152 0 0 0-1.165 1.167z" fill="#fff"/>
</svg>