<svg width="64" height="64" viewBox="0 0 24 24" xmlns="http://www.w3.org/2000/svg">
<desc>triangle dotted,straight,handle-out</desc>
<g stroke="#000" stroke-width="2" fill="#fff" stroke-linecap="round" stroke-linejoin="round">
<path d="M5.76 15.80L5.02 15.27L4.39 14.60L3.91 13.82L3.59 12.96L3.44 12.06L3.47 11.14L3.67 10.25L4.05 9.41L4.59 8.67L5.26 8.04L6.03 7.56L6.89 7.23L7.80 7.08L8.71 7.11L9.61 7.32L10.44 7.70"></path>
<path d="M12.00 5.00L14.34 9.05 L 17.46 14.45L19.79 18.50 L 19.79 18.50L4.21 18.50 L 4.21 18.50L12.00 5.00 Z"></path>
<path d="M14.34 9.05L14.87 8.81L15.44 8.67L16.03 8.64L16.61 8.72L17.17 8.90L17.68 9.19L18.13 9.57L18.50 10.03L18.78 10.55L18.95 11.11L19.01 11.70L18.97 12.28L18.81 12.85L18.55 13.38L18.20 13.85L17.77 14.25L17.26 14.55L16.71 14.76L16.13 14.86L15.55 14.85L14.97 14.73L14.43 14.50L13.94 14.18L13.52 13.76L13.18 13.28L12.94 12.75L12.81 12.17L12.78 11.59L12.87 11.00L13.06 10.45L13.36 9.94L13.74 9.50L14.21 9.13L14.73 8.86L15.29 8.69L15.88 8.63L16.46 8.68L17.03 8.84L17.55 9.11L18.02 9.47L18.41 9.91L18.71 10.41L18.91 10.96L19.01 11.54L18.99 12.13L18.86 12.70L18.63 13.25L18.30 13.73L17.89 14.15L17.40 14.48L16.86 14.71L16.29 14.84L15.70 14.86L15.12 14.77L14.57 14.57L14.06 14.27L13.62 13.88L13.26 13.42L13.00 12.89L12.83 12.33L12.78 11.74L12.84 11.16L13.00 10.59L13.27 10.07L13.63 9.61L14.08 9.22L14.58 8.92L15.14 8.73L15.72 8.64L16.31 8.66L16.88 8.79L17.42 9.03L17.90 9.36L18.32 9.78L18.64 10.27L18.87 10.81L18.99 11.39L19.01 11.98L18.91 12.56L18.70 13.11L18.40 13.61L18.01 14.05L17.54 14.40L17.01 14.66L16.44 14.82L15.86 14.87L15.27 14.80L14.71 14.63L14.19 14.36L13.73 13.99"></path>
</g>
</svg>
